<svg xmlns="http://www.w3.org/2000/svg" viewBox="0 0 72 62.86"><defs><style>.cls-1{fill:#b7ab98;}</style></defs><g id="Layer_2" data-name="Layer 2"><g id="LEFT_NAV" data-name="LEFT NAV"><g id="CAT_LOGO" data-name="CAT LOGO"><path class="cls-1" d="M32,42.29a14.86,14.86,0,0,0-3-2,15.46,15.46,0,0,0-5-1c-1.1,0,3,4,6,4C31.38,43.29,32.93,42.89,32,42.29Z"/><path class="cls-1" d="M36,0A36,36,0,0,0,11,61.91C15.1,46.6,20.18,30.3,24.26,15L31.4,29h9.2l6.12-14C51.14,30.62,55.55,47.23,60,62.86A36,36,0,0,0,36,0Z"/><path class="cls-1" d="M45.19,39.29a15.46,15.46,0,0,0-5,1,14.86,14.86,0,0,0-3,2c-.93.6.61,1,2,1C42.19,43.29,46.29,39.29,45.19,39.29Z"/></g></g></g></svg>